<svg width="427" height="427" viewBox="0 0 427 427" fill="none" xmlns="http://www.w3.org/2000/svg">
<circle cx="213.5" cy="213.5" r="213.5" fill="black"/>
<path d="M305.898 84.4164C322.609 98.0359 345.501 105.111 370.344 104.416C378.72 104.171 387.381 103.066 396.204 101.062C379.859 73.8643 357.292 49.8564 328.912 31.5334C302.971 14.7647 274.752 4.41714 246.128 0L270.727 39.3452C281.014 55.7868 291.626 72.8009 305.898 84.4164ZM76.8593 258.934C87.2683 241.266 97.1081 224.579 98.2059 206.869C99.1411 192.268 94.0179 176.726 89.0573 161.716L83.9342 146.134C75.0296 125.316 66.0437 104.58 56.9358 83.8847C56.082 82.126 55.1874 80.3264 54.4149 78.486C54.0083 77.5044 53.6423 76.4819 53.2764 75.5003C52.7885 74.396 52.2599 73.2508 51.772 72.1465C45.3477 79.6311 39.3706 87.6474 33.8815 96.1954C-17.7569 177.054 -8.64904 279.629 49.495 349.731C48.4785 331.694 50.9588 313.494 57.4237 296.602C62.5876 283.106 69.8251 270.836 76.8186 258.975L76.8593 258.934ZM420.356 265.437C419.787 265.437 419.218 265.478 418.689 265.519C416.046 265.642 413.526 265.805 410.923 265.928C409.785 266.132 408.646 266.337 407.508 266.541C388.52 269.977 370.548 273.208 356.113 282.165C336.8 294.149 324.805 317.461 326.269 340.201C326.675 346.541 328.017 353.166 329.481 360.16C331.433 369.608 333.344 379.383 333.384 389.976C356.601 374.148 377.053 353.494 393.155 328.259C405.841 308.382 414.827 287.155 420.356 265.437ZM410.029 232.84C415.721 231.777 421.088 230.591 426.333 229.364C428.001 208.055 426.537 186.706 421.983 166.011C419.421 166.379 416.86 166.829 414.339 167.36C401.734 170.019 389.414 174.64 376.362 179.548C369.816 182.002 363.066 184.538 356.235 186.828C338.589 192.718 312.078 199.835 285.405 193.577C275.728 191.327 266.539 187.319 258.244 181.961C242.671 171.9 230.229 157.013 223.48 139.508C217.503 124.048 216.324 108.343 215.185 93.2097C214.616 85.4389 214.047 78.077 212.868 71.0014C210.835 58.6497 206.687 46.0118 200.222 32.3923C193.798 18.8546 186.804 8.30258 178.998 0.368095C152.04 4.82613 126.017 14.3966 102.435 28.8341C100.036 33.7011 98.4498 38.2818 97.6773 42.7399C93.3267 66.9932 111.339 92.7598 125.286 110.019C127.156 112.351 129.067 114.682 131.019 117.054C148.584 138.526 168.507 162.902 173.061 193.74C177.778 225.601 165.336 253.822 153.341 281.183C144.03 302.369 135.207 322.369 134.963 342.533C134.637 366.663 147.323 392.348 169.768 412.961C174.484 417.297 179.486 421.305 184.69 425.068C197.417 426.785 210.184 427.358 222.87 426.785C229.01 423.186 233.93 419.096 237.67 414.393C248.811 400.528 251.332 380.364 252.389 360.651C252.552 357.911 252.674 355.17 252.796 352.43C253.772 331.49 254.788 309.813 263.977 289.159C274.63 265.274 295.774 246.174 320.536 238.157C339.117 232.145 358.309 232.309 377.948 233.127L379.574 233.208C389.211 233.577 398.563 233.945 407.467 233.413C408.321 233.249 409.175 233.086 410.029 232.963V232.84Z" fill="url(#paint0_linear_7_3205)"/>
<defs>
<linearGradient id="paint0_linear_7_3205" x1="169.525" y1="3.45186" x2="267.213" y2="461.193" gradientUnits="userSpaceOnUse">
<stop stop-color="#41E308"/>
<stop offset="0.98" stop-color="#154603"/>
</linearGradient>
</defs>
</svg>
